<svg width="142" height="37" viewBox="0 0 142 37" fill="none" xmlns="http://www.w3.org/2000/svg">
<path d="M111.103 24.8644C117.251 24.8644 122.235 19.8788 122.235 13.7287C122.235 7.57865 117.251 2.59305 111.103 2.59305C104.954 2.59305 99.9702 7.57865 99.9702 13.7287C99.9702 19.8788 104.954 24.8644 111.103 24.8644ZM111.103 24.8644V36M104.918 31.052H117.287M1 24.8644H9.01527V24.5814H7.91513C6.40638 24.5814 6.21778 24.4556 6.21778 22.9464V4.23851C6.21778 2.7293 6.40638 2.60354 7.91513 2.60354H9.01527V2.25767H1V2.54065H2.10013C3.60889 2.54065 3.76605 2.66642 3.76605 4.17563V22.9464C3.76605 24.4556 3.60889 24.5814 2.10013 24.5814H1V24.8644ZM10.651 13.4824C10.651 20.4625 15.0515 25.1159 21.6523 25.1159C24.9527 25.1159 27.9702 23.6067 29.2275 20.4625L28.6932 20.2738C27.5931 22.915 24.7013 24.5499 21.7152 24.5499C16.3402 24.5499 13.4485 20.5254 13.4485 12.9793C13.4485 6.21934 16.2145 2.54065 21.3694 2.54065C24.4812 2.54065 27.5302 4.74158 27.6874 7.57134L27.7817 10.4954L28.3474 10.464L28.0645 1.3773L27.7817 1.40874L27.8445 3.67256C27.8445 4.01842 27.8759 4.33283 27.9388 4.58437L27.7188 4.64725C27.6559 4.42716 27.5302 4.17563 27.373 4.01842C25.77 2.66642 23.7269 2.00614 21.6209 2.00614C15.0201 2.00614 10.651 6.59665 10.651 13.4824ZM48.4524 24.2984H47.918C46.4093 24.2984 46.2207 24.1412 46.2207 22.632V4.04986C46.2207 3.48391 46.2521 2.94939 46.3464 2.38344V2.13191L41.4744 2.25767V2.54065H42.0087C43.5175 2.54065 43.7061 2.69786 43.7061 4.20707V16.5323C43.7061 21.3429 41.443 24.5499 38.0797 24.5499C36.2566 24.5499 34.9993 23.0093 34.9993 20.0852V1.3773H34.7479V1.50307C34.7479 2.79219 33.1134 3.16949 31.8561 3.16949H30.0644V3.45246H31.5418C32.139 3.45246 32.4847 3.79832 32.4847 4.39572V20.3682C32.4847 23.4495 34.7164 25.1159 37.7968 25.1159C40.7515 25.1159 43.3918 23.2294 44.0519 18.7018H44.3347V23.1036C44.3347 23.6696 44.3033 24.267 44.209 24.8958V25.1473C45.4349 24.8958 46.9436 24.6443 48.4524 24.5814V24.2984ZM54.0906 2.85507H56.3852C60.3456 2.85507 62.483 5.08744 62.483 9.17488C62.483 13.2938 60.3456 15.4947 56.3852 15.4947H54.6249V4.96167C54.6249 4.23851 54.4678 3.51535 54.0906 3.01228V2.85507ZM49.4072 24.8644H57.1081V24.5814H56.3223C54.8135 24.5814 54.6249 24.4242 54.6249 22.915V16.0606H57.3281C62.043 16.0606 65.2177 13.3252 65.2177 9.17488C65.2177 5.02455 62.043 2.25767 57.3281 2.25767H49.4072V2.54065H50.5073C52.016 2.54065 52.1732 2.69786 52.1732 4.20707V22.915C52.1732 24.4242 52.016 24.5814 50.5073 24.5814H49.4072V24.8644ZM66.9243 19.2991L76.1969 1.06288L76.0083 1C75.3797 2.19479 74.7196 2.25767 71.9221 2.25767V2.57209C72.7079 2.57209 73.1165 2.82363 73.1165 3.23237C73.1165 3.51535 73.0537 3.89265 72.8651 4.42716C70.9477 10.6841 66.1385 19.5192 66.0442 19.7079V20.3996H75.5368V22.632C75.5368 24.3927 75.3168 24.5814 73.5566 24.5814H72.1107V24.8644H80.2517V24.5814H79.7173C77.9571 24.5814 77.7685 24.3927 77.7685 22.632V20.3996H79.7488V19.2991H77.7685V11.7531H75.5368V19.2991H66.9243ZM84.441 24.8644H95.2852V24.5814H92.9592C91.4505 24.5814 91.2933 24.4242 91.2933 22.915V13.7339L95.9453 4.74158C96.7625 3.13805 97.1397 2.50921 98.0513 2.50921H98.5856V2.25767H92.5192V2.50921H94.4051C95.3795 2.50921 95.7253 2.88651 95.7253 3.38958C95.7253 3.79832 95.5367 4.26995 95.2852 4.77302L91.5133 12.0675C91.3562 12.3819 91.1361 12.885 91.1047 13.0737H90.8847C90.8533 12.885 90.6332 12.3505 90.4761 12.0675L86.4213 4.33283C85.9184 3.38958 85.5412 2.7293 85.1326 2.57209V2.50921H87.0814V2.25767H81.1406V2.50921H81.8007C82.7123 2.50921 83.1209 3.26381 83.8753 4.71014L88.8102 14.2056V22.915C88.8102 24.4242 88.653 24.5814 87.1442 24.5814H84.441V24.8644ZM141 24.2984H140.466C138.957 24.2984 138.768 24.1412 138.768 22.632V4.04986C138.768 3.48391 138.8 2.94939 138.894 2.38344V2.13191L134.022 2.25767V2.54065H134.556C136.065 2.54065 136.254 2.69786 136.254 4.20707V16.5323C136.254 21.3429 133.991 24.5499 130.627 24.5499C128.804 24.5499 127.547 23.0093 127.547 20.0852V1.3773H127.295V1.50307C127.295 2.79219 125.661 3.16949 124.404 3.16949H122.612V3.45246H124.089C124.687 3.45246 125.032 3.79832 125.032 4.39572V20.3682C125.032 23.4495 127.264 25.1159 130.344 25.1159C133.299 25.1159 135.939 23.2294 136.599 18.7018H136.882V23.1036C136.882 23.6696 136.851 24.267 136.757 24.8958V25.1473C137.982 24.8958 139.491 24.6443 141 24.5814V24.2984Z" stroke="white" stroke-linecap="round" stroke-linejoin="round"/>
</svg>
